<svg xmlns="http://www.w3.org/2000/svg" viewBox="0 0 32 32">
  <defs>
    <linearGradient id="g" x1="0" y1="0" x2="32" y2="32" gradientUnits="userSpaceOnUse">
      <stop offset="0" stop-color="#F97066"/>
      <stop offset="0.5" stop-color="#E478FA"/>
      <stop offset="1" stop-color="#7A5AF8"/>
    </linearGradient>
  </defs>
  <rect width="32" height="32" rx="8" fill="url(#g)"/>
  <path d="M16 6l2.4 6.1a1.5 1.5 0 0 0 .9.9L25.4 15a.6.6 0 0 1 0 1.1l-6.1 2.4a1.5 1.5 0 0 0-.9.9L16 25.4a.6.6 0 0 1-1.1 0l-2.4-6.1a1.5 1.5 0 0 0-.9-.9L5.5 16a.6.6 0 0 1 0-1.1l6.1-2.4a1.5 1.5 0 0 0 .9-.9L14.9 6a.6.6 0 0 1 1.1 0z" fill="#fff"/>
</svg>
